# xmcd
#
# Track frame offsets: 
#        150
#        21275
#        42525
#        63675
#        78750
#        91575
#        126075
#        162075
#        184875
#        204300
#        218325
#        229350
#        250050
#        280005
#
# Disc length: 4102 seconds
#
# Revision: 3
# Processed by: cddbd v1.5.2PL0 Copyright (c) Steve Scherf et al.
# Submitted via: ExactAudioCopyFreeDBPlugin 1.0
#
DISCID=b610040e
DTITLE=Gerhard Weinberger - Complete Organ Works Vol. 10
DYEAR=2001
DGENRE=Classical
TTITLE0=Praeludium et Fuga in C BWV 547 - Praeludium
TTITLE1=Praeludium et Fuga in C BWV 547 - Fuga
TTITLE2=Leipziger Orgelchoräle: Nun komm, der Heiden Heiland BWV 659
TTITLE3=Leipziger Orgelchoräle: Nun komm, der Heiden Heiland BWV 660
TTITLE4=Leipziger Orgelchoräle: Nun komm, der Heiden Heiland BWV 661
TTITLE5=Leipziger Orgelchoräle: Allein Gott in der Höh sei Ehr BWV 662
TTITLE6=Leipziger Orgelchoräle: Allein Gott in der Höh sei Ehr BWV 663
TTITLE7=Leipziger Orgelchoräle: Allein Gott in der Höh sei Ehr BWV 664
TTITLE8=Leipziger Orgelchoräle: Jesus Christus, unser Heiland BWV 665
TTITLE9=Leipziger Orgelchoräle: Jesus Christus, unser Heiland BWV 666
TTITLE10=Leipziger Orgelchoräle: Komm, Gott Schöpfer, heiliger Geist B
TTITLE10=WV 667
TTITLE11=Leipziger Orgelchoräle: Vor deinen Thron tret ich hiermit BWV
TTITLE11=668
TTITLE12=Praeludium et Fuga in b BWV 544 - Praeludium
TTITLE13=Praeludium et Fuga in b BWV 544 - Fuga
EXTD=
EXTT0=
EXTT1=
EXTT2=
EXTT3=
EXTT4=
EXTT5=
EXTT6=
EXTT7=
EXTT8=
EXTT9=
EXTT10=
EXTT11=
EXTT12=
EXTT13=
PLAYORDER=
